HIERARCHY
ROOT Hips
{
	OFFSET 0.000000 0.000000 0.000000
	CHANNELS 6 Xposition Yposition Zposition Xrotation Yrotation Zrotation
	JOINT LeftUpLeg_virtual
	{
		OFFSET 0.000000 0.000000 0.000000
		CHANNELS 3 Xrotation Yrotation Zrotation
		JOINT LeftUpLeg
		{
			OFFSET 15.427100 -6.655098 0.678600
			CHANNELS 3 Xrotation Yrotation Zrotation
			JOINT LeftLeg
			{
				OFFSET 4.081073 -39.591068 13.024000
				CHANNELS 3 Xrotation Yrotation Zrotation
				JOINT LeftFoot
				{
					OFFSET -4.081074 -37.707932 -15.979700
					CHANNELS 3 Xrotation Yrotation Zrotation
					JOINT LeftToeBase
					{
						OFFSET 5.346399 -15.068900 20.645000
						CHANNELS 3 Xrotation Yrotation Zrotation
						JOINT LeftToe_End
						{
							OFFSET 2.754700 0.931300 11.300900
							CHANNELS 3 Xrotation Yrotation Zrotation
							End Site
							{
								OFFSET 0 0 0
							}
						}
					}
				}
			}
		}
	}
	JOINT RightUpLeg_virtual
	{
		OFFSET 0.000000 0.000000 0.000000
		CHANNELS 3 Xrotation Yrotation Zrotation
		JOINT RightUpLeg
		{
			OFFSET -15.569500 -6.655098 0.678600
			CHANNELS 3 Xrotation Yrotation Zrotation
			JOINT RightLeg
			{
				OFFSET -4.081825 -39.591045 13.023800
				CHANNELS 3 Xrotation Yrotation Zrotation
				JOINT RightFoot
				{
					OFFSET 4.081824 -37.707954 -15.979600
					CHANNELS 3 Xrotation Yrotation Zrotation
					JOINT RightToeBase
					{
						OFFSET -5.346400 -15.068900 20.645000
						CHANNELS 3 Xrotation Yrotation Zrotation
						JOINT RightToe_End
						{
							OFFSET -2.754700 0.931300 11.300900
							CHANNELS 3 Xrotation Yrotation Zrotation
							End Site
							{
								OFFSET 0 0 0
							}
						}
					}
				}
			}
		}
	}
	JOINT Spine_virtual
	{
		OFFSET 0.000000 0.000000 0.000000
		CHANNELS 3 Xrotation Yrotation Zrotation
		JOINT Spine
		{
			OFFSET -0.279200 12.230698 -2.892100
			CHANNELS 3 Xrotation Yrotation Zrotation
			JOINT Spine1
			{
				OFFSET -0.232667 10.192268 -1.242267
				CHANNELS 3 Xrotation Yrotation Zrotation
				JOINT Spine1_split
				{
					OFFSET -0.232667 10.192268 -1.242267
					CHANNELS 3 Xrotation Yrotation Zrotation
					JOINT Spine2
					{
						OFFSET -0.232667 10.192268 -1.242267
						CHANNELS 3 Xrotation Yrotation Zrotation
						JOINT Neck_virtual
						{
							OFFSET 0.000000 0.000000 0.000000
							CHANNELS 3 Xrotation Yrotation Zrotation
							JOINT Neck
							{
								OFFSET -0.418800 17.814194 8.416900
								CHANNELS 3 Xrotation Yrotation Zrotation
								JOINT Head
								{
									OFFSET 0.000000 7.031097 3.806800
									CHANNELS 3 Xrotation Yrotation Zrotation
									JOINT HeadTop_End
									{
										OFFSET 0.000000 24.646606 12.978600
										CHANNELS 3 Xrotation Yrotation Zrotation
										End Site
										{
											OFFSET 0 0 0
										}
									}
								}
							}
						}
						JOINT LeftShoulder_virtual
						{
							OFFSET 0.000000 0.000000 0.000000
							CHANNELS 3 Xrotation Yrotation Zrotation
							JOINT LeftShoulder
							{
								OFFSET 8.476499 7.247704 -3.868750
								CHANNELS 3 Xrotation Yrotation Zrotation
								JOINT LeftShoulder_split
								{
									OFFSET 8.476499 7.247704 -3.868750
									CHANNELS 3 Xrotation Yrotation Zrotation
									JOINT LeftArm
									{
										OFFSET 9.308998 -2.777710 0.208600
										CHANNELS 3 Xrotation Yrotation Zrotation
										JOINT LeftForeArm
										{
											OFFSET 29.972298 0.000000 0.000000
											CHANNELS 3 Xrotation Yrotation Zrotation
											JOINT LeftHand
											{
												OFFSET 26.026505 0.000000 0.000000
												CHANNELS 3 Xrotation Yrotation Zrotation
												End Site
												{
													OFFSET 0 0 0
												}
											}
										}
									}
								}
							}
						}
						JOINT RightShoulder_virtual
						{
							OFFSET 0.000000 0.000000 0.000000
							CHANNELS 3 Xrotation Yrotation Zrotation
							JOINT RightShoulder
							{
								OFFSET -7.570500 7.247704 -3.868750
								CHANNELS 3 Xrotation Yrotation Zrotation
								JOINT RightShoulder_split
								{
									OFFSET -7.570500 7.247704 -3.868750
									CHANNELS 3 Xrotation Yrotation Zrotation
									JOINT RightArm
									{
										OFFSET -9.308998 -2.777710 0.208500
										CHANNELS 3 Xrotation Yrotation Zrotation
										JOINT RightForeArm
										{
											OFFSET -29.972300 0.000000 0.000000
											CHANNELS 3 Xrotation Yrotation Zrotation
											JOINT RightHand
											{
												OFFSET -26.026505 0.000000 0.000000
												CHANNELS 3 Xrotation Yrotation Zrotation
												End Site
												{
													OFFSET 0 0 0
												}
											}
										}
									}
								}
							}
						}
					}
				}
			}
		}
	}
}
MOTION
Frames: 11
Frame Time: 0.03333333
2.617995 86.044571 -3.389732 0.000000 0.000000 0.000000 3.363031 -10.017610 -1.416743 -30.273970 5.128404 8.800769 25.923239 1.586229 2.294222 -0.539936 -0.339296 -5.577080 1.848321 -1.137003 -1.537322 0.000000 0.000000 0.000000 3.237269 -10.749988 -1.418117 -7.277491 -12.688377 -17.343565 25.397628 -7.955392 4.769184 -18.331137 -4.834548 14.609966 -0.037821 0.633849 1.219909 0.000000 0.000000 0.000000 4.340572 -9.628899 -1.878917 21.275771 5.175986 1.939259 1.875497 1.975354 -0.431736 0.530450 -0.310363 0.256883 0.000000 0.000000 0.000000 2.676245 2.045159 -0.171738 -5.454815 16.370999 1.497024 7.714621 48.316768 -21.541787 0.000000 0.000000 0.000000 2.918069 2.345046 -0.430618 2.263020 -35.007448 5.887259 0.420611 0.496831 -4.655891 -25.075648 -15.826144 -66.627061 -0.275561 -45.729182 -7.867189 0.000000 0.000000 0.000000 3.429256 2.089708 -0.431559 8.556553 21.362853 -10.193083 -1.215227 3.502426 0.365481 -42.788673 14.657934 82.142027 -0.673437 53.100766 2.849606 0.000000 0.000000 0.000000 
2.766039 86.057289 -2.770863 0.000000 0.000000 0.000000 3.389131 -9.298590 -1.482283 -30.357793 5.267066 8.322012 26.251163 1.254418 2.320281 -1.011333 -0.296086 -5.278436 1.778424 -1.157790 -1.497563 0.000000 0.000000 0.000000 3.251506 -10.089058 -1.483081 -6.430124 -12.636234 -17.484646 24.877692 -8.607049 4.729366 -18.346885 -4.939852 15.166771 -0.042836 0.602129 1.261190 0.000000 0.000000 0.000000 4.422651 -8.924900 -1.928876 21.085100 5.224308 1.499636 1.828287 2.071177 -0.615361 0.530667 -0.298313 0.228901 0.000000 0.000000 0.000000 2.645655 2.139657 -0.386838 -5.505862 16.236085 1.804209 6.768785 47.968664 -20.622417 0.000000 0.000000 0.000000 2.929822 2.429538 -0.687378 2.123876 -35.560280 5.845833 0.184485 0.442738 -4.956433 -24.697740 -15.749235 -66.462269 -0.219097 -45.513631 -6.748550 0.000000 0.000000 0.000000 3.447701 2.227414 -0.670780 8.403550 20.486983 -9.927624 -0.966965 3.632608 0.337828 -43.117857 15.222449 83.097188 -0.684712 52.551537 2.436905 0.000000 0.000000 0.000000 
2.888574 86.062958 -2.164906 0.000000 0.000000 0.000000 3.434189 -8.669414 -1.493753 -30.454082 5.343918 7.865701 26.633243 0.996893 2.349922 -1.464914 -0.246385 -5.033551 1.710713 -1.174155 -1.451727 0.000000 0.000000 0.000000 3.279748 -9.535642 -1.488978 -5.701940 -12.540285 -17.644561 24.446193 -9.174381 4.646554 -18.399264 -5.038018 15.688613 -0.057290 0.575373 1.302483 0.000000 0.000000 0.000000 4.530654 -8.328304 -1.914452 20.893815 5.216069 1.027881 1.790017 2.147510 -0.793460 0.539455 -0.280536 0.221013 0.000000 0.000000 0.000000 2.625858 2.217069 -0.600555 -5.606849 15.993376 2.148932 5.552106 47.436733 -19.399045 0.000000 0.000000 0.000000 2.940211 2.496876 -0.937368 1.982513 -36.076885 5.807707 -0.011604 0.422618 -5.190114 -24.118214 -15.827929 -66.247842 -0.201506 -45.462733 -5.670444 0.000000 0.000000 0.000000 3.460228 2.345404 -0.897439 8.295107 19.860843 -9.736628 -0.801749 3.717509 0.364008 -43.349162 15.574419 83.913621 -0.773417 52.182563 2.173443 0.000000 0.000000 0.000000 
2.988263 86.058945 -1.593319 0.000000 0.000000 0.000000 3.507237 -8.130563 -1.461857 -30.571336 5.333921 7.428103 27.066260 0.803453 2.389686 -1.890875 -0.196853 -4.849516 1.666516 -1.185464 -1.409873 0.000000 0.000000 0.000000 3.332663 -9.072162 -1.448543 -5.084287 -12.409189 -17.809805 24.083983 -9.665897 4.524448 -18.512505 -5.136065 16.152588 -0.054572 0.556507 1.340935 0.000000 0.000000 0.000000 4.666889 -7.839046 -1.858474 20.709214 5.143755 0.532671 1.757158 2.201360 -0.961924 0.521516 -0.236458 0.229780 0.000000 0.000000 0.000000 2.606521 2.274441 -0.810215 -5.767687 15.669762 2.547458 4.181797 46.797943 -17.919051 0.000000 0.000000 0.000000 2.948694 2.544982 -1.171205 1.857364 -36.582637 5.816227 -0.164625 0.442803 -5.358578 -23.367908 -16.043933 -66.008068 -0.220715 -45.557806 -4.648770 0.000000 0.000000 0.000000 3.467804 2.440061 -1.103999 8.223170 19.477823 -9.612860 -0.698629 3.762562 0.398719 -43.442469 15.703257 84.557100 -0.901888 51.931007 2.021638 0.000000 0.000000 0.000000 
3.077018 86.049568 -1.047321 0.000000 0.000000 0.000000 3.619639 -7.683327 -1.400399 -30.707626 5.229247 7.006652 27.531560 0.668949 2.444832 -2.304828 -0.147164 -4.721377 1.662764 -1.191207 -1.382207 0.000000 0.000000 0.000000 3.417407 -8.691179 -1.375658 -4.572089 -12.256554 -17.966589 23.785213 -10.093187 4.375699 -18.667320 -5.237437 16.550674 -0.018261 0.548148 1.371468 0.000000 0.000000 0.000000 4.825852 -7.468375 -1.777873 20.541789 5.010618 0.028102 1.730764 2.229180 -1.117293 0.499296 -0.169978 0.244228 0.000000 0.000000 0.000000 2.584293 2.310691 -1.011175 -5.990569 15.295049 3.022458 2.768280 46.131388 -16.258381 0.000000 0.000000 0.000000 2.956107 2.568069 -1.383167 1.756384 -37.103316 5.884426 -0.288678 0.561041 -5.480535 -22.506568 -16.366397 -65.779742 -0.273817 -45.738423 -3.686073 0.000000 0.000000 0.000000 3.471222 2.508559 -1.290816 8.182129 19.311339 -9.556317 -0.650924 3.782145 0.416246 -43.406289 15.608152 85.005550 -1.043095 51.778844 1.945328 0.000000 0.000000 0.000000 
3.157357 86.036812 -0.542747 0.000000 0.000000 0.000000 3.767945 -7.322929 -1.323920 -30.847955 5.048540 6.607774 27.989996 0.590904 2.514119 -2.722676 -0.099975 -4.643458 1.694209 -1.191248 -1.367790 0.000000 0.000000 0.000000 3.533447 -8.385422 -1.286815 -4.167392 -12.102168 -18.106376 23.535348 -10.463641 4.216581 -18.820631 -5.340857 16.895079 0.038550 0.551022 1.387492 0.000000 0.000000 0.000000 4.995839 -7.209114 -1.684837 20.402882 4.826420 -0.469273 1.703189 2.229210 -1.259268 0.502438 -0.093850 0.247035 0.000000 0.000000 0.000000 2.556866 2.323992 -1.201296 -6.272455 14.898321 3.566980 1.402934 45.502823 -14.515624 0.000000 0.000000 0.000000 2.962227 2.565232 -1.573500 1.682427 -37.660666 5.998338 -0.448762 0.755160 -5.571299 -21.554692 -16.766113 -65.568771 -0.358599 -45.941676 -2.780066 0.000000 0.000000 0.000000 3.473058 2.546605 -1.458653 8.165143 19.321456 -9.562931 -0.635177 3.852256 0.368035 -43.268026 15.353372 85.296488 -1.173526 51.733191 1.915445 0.000000 0.000000 0.000000 
3.226626 86.024200 -0.078407 0.000000 0.000000 0.000000 3.945485 -7.045301 -1.240749 -30.982267 4.829537 6.243999 28.400961 0.561721 2.588343 -3.128366 -0.063111 -4.616141 1.731554 -1.185561 -1.358674 0.000000 0.000000 0.000000 3.672566 -8.142231 -1.192404 -3.867910 -11.969568 -18.226493 23.306298 -10.779172 4.059261 -18.930286 -5.442583 17.213810 0.079807 0.563965 1.385328 0.000000 0.000000 0.000000 5.171568 -7.057934 -1.585529 20.299556 4.608228 -0.943597 1.670370 2.204664 -1.387984 0.488280 -0.025352 0.230711 0.000000 0.000000 0.000000 2.530756 2.317952 -1.378568 -6.602514 14.514828 4.162955 0.129170 44.969388 -12.802853 0.000000 0.000000 0.000000 2.970873 2.538545 -1.740711 1.632055 -38.262945 6.136939 -0.657327 1.010721 -5.652628 -20.566239 -17.180605 -65.402019 -0.494516 -46.100553 -1.936603 0.000000 0.000000 0.000000 3.474912 2.556274 -1.608948 8.169068 19.465401 -9.627756 -0.615752 3.996635 0.282482 -43.061245 15.006738 85.480125 -1.270881 51.776410 1.909897 0.000000 0.000000 0.000000 
3.286959 86.013832 0.332100 0.000000 0.000000 0.000000 4.137951 -6.838610 -1.154506 -31.116276 4.609091 5.928938 28.744025 0.570750 2.656660 -3.485814 -0.039505 -4.636624 1.752596 -1.176265 -1.347491 0.000000 0.000000 0.000000 3.831506 -7.954149 -1.096554 -3.663750 -11.869417 -18.332257 23.080621 -11.038978 3.911587 -18.991305 -5.533996 17.504682 0.089471 0.585400 1.367013 0.000000 0.000000 0.000000 5.343977 -7.008312 -1.474965 20.232772 4.376179 -1.381018 1.633020 2.162507 -1.502616 0.486230 0.015347 0.217755 0.000000 0.000000 0.000000 2.510953 2.300057 -1.540438 -6.967956 14.167093 4.761217 -1.024604 44.562032 -11.234150 0.000000 0.000000 0.000000 2.979243 2.498098 -1.886864 1.593297 -38.897292 6.259446 -0.913316 1.290656 -5.722407 -19.600802 -17.574283 -65.295645 -0.657781 -46.167246 -1.141280 0.000000 0.000000 0.000000 3.479088 2.546139 -1.743454 8.186577 19.694436 -9.737745 -0.555006 4.168802 0.191806 -42.809922 14.635465 85.596170 -1.328797 51.899913 1.912123 0.000000 0.000000 0.000000 
3.330896 86.007576 0.692692 0.000000 0.000000 0.000000 4.327155 -6.693634 -1.063071 -31.249068 4.424428 5.671479 29.014203 0.609852 2.709732 -3.766865 -0.022507 -4.683992 1.771163 -1.165466 -1.338495 0.000000 0.000000 0.000000 3.991965 -7.820423 -0.998202 -3.542506 -11.811596 -18.438446 22.851136 -11.246794 3.780099 -19.013203 -5.610287 17.740805 0.106077 0.614798 1.338996 0.000000 0.000000 0.000000 5.516410 -7.041971 -1.351873 20.200932 4.151342 -1.776008 1.590444 2.115606 -1.606355 0.473048 0.042741 0.206474 0.000000 0.000000 0.000000 2.499957 2.280881 -1.683679 -7.343864 13.863296 5.295803 -2.067012 44.271142 -9.886894 0.000000 0.000000 0.000000 2.986436 2.459152 -2.012478 1.552738 -39.541454 6.341411 -1.183344 1.541297 -5.754987 -18.692783 -17.914352 -65.258517 -0.830392 -46.108469 -0.378191 0.000000 0.000000 0.000000 3.481793 2.530178 -1.862568 8.215501 19.966378 -9.884533 -0.450913 4.328211 0.116157 -42.527370 14.288755 85.665776 -1.336858 52.051874 1.908832 0.000000 0.000000 0.000000 
3.356579 86.009193 0.994511 0.000000 0.000000 0.000000 4.505085 -6.613490 -0.962500 -31.376393 4.291323 5.473217 29.207026 0.672960 2.743415 -3.973285 0.000247 -4.739508 1.811923 -1.153524 -1.338836 0.000000 0.000000 0.000000 4.145301 -7.736469 -0.891461 -3.498540 -11.791645 -18.560899 22.625524 -11.399546 3.672802 -19.001511 -5.669471 17.912357 0.151239 0.649435 1.308139 0.000000 0.000000 0.000000 5.685016 -7.135234 -1.215592 20.192155 3.951314 -2.129886 1.550078 2.077621 -1.701597 0.452132 0.015088 0.189152 0.000000 0.000000 0.000000 2.497504 2.272190 -1.806695 -7.711866 13.601764 5.712991 -3.021517 44.045400 -8.785298 0.000000 0.000000 0.000000 2.989633 2.438165 -2.121814 1.502767 -40.167533 6.377420 -1.443741 1.759975 -5.755379 -17.933121 -18.188632 -65.319066 -0.966738 -45.885487 0.383406 0.000000 0.000000 0.000000 3.487142 2.521928 -1.971623 8.253593 20.240914 -10.058321 -0.294621 4.415572 0.084959 -42.251970 13.981156 85.681001 -1.313512 52.193389 1.901723 0.000000 0.000000 0.000000 
3.358936 86.015038 1.233013 0.000000 0.000000 0.000000 4.660145 -6.595115 -0.855558 -31.483139 4.217133 5.333153 29.324516 0.753966 2.760565 -4.131447 0.038243 -4.793867 1.869540 -1.140264 -1.350969 0.000000 0.000000 0.000000 4.272399 -7.701161 -0.778499 -3.529466 -11.798474 -18.705854 22.430951 -11.484538 3.598024 -18.953203 -5.706058 18.038620 0.186517 0.684688 1.276852 0.000000 0.000000 0.000000 5.843521 -7.254212 -1.070847 20.201068 3.788250 -2.446979 1.515286 2.057243 -1.793175 0.435224 -0.033305 0.192607 0.000000 0.000000 0.000000 2.497998 2.278264 -1.910648 -8.043929 13.349976 5.967802 -3.920447 43.756483 -7.878305 0.000000 0.000000 0.000000 2.985659 2.442281 -2.220497 1.445087 -40.735853 6.381579 -1.648522 1.920217 -5.705907 -17.388290 -18.419321 -65.489875 -1.024801 -45.485419 1.171251 0.000000 0.000000 0.000000 3.496172 2.531668 -2.074006 8.302276 20.486060 -10.257924 -0.096531 4.434334 0.086547 -42.024341 13.709362 85.640334 -1.276616 52.286577 1.891763 0.000000 0.000000 0.000000 
